<svg height="512pt" fill="#fff" viewBox="0 -50 512.001 512" width="512pt" xmlns="http://www.w3.org/2000/svg"><path d="m474.980469 111.785156c-13.40625 0-24.460938 10.261719-25.707031 23.335938l-41.613282 17.097656h-27.488281v-7.679688c0-12.457031-10.128906-22.589843-22.578125-22.589843h-47.234375v-46.164063h12.503906c8.726563 12.285156 23.070313 20.328125 39.273438 20.328125h101.742187c26.535156 0 48.121094-21.550781 48.121094-48.042969 0-26.503906-21.585938-48.070312-48.121094-48.070312h-101.746094c-16.195312 0-30.535156 8.042969-39.261718 20.328125h-147.296875c-29.539063 0-47.191407 24.429687-47.191407 48.042969v53.578125h-.246093c-11.699219 0-21.355469 8.929687-22.492188 20.328125h-51.128906c-3.253906-11.707032-14.007813-20.328125-26.75-20.328125-15.308594 0-27.765625 12.441406-27.765625 27.742187v40.65625c0 15.296875 12.457031 27.742188 27.765625 27.742188 12.742187 0 23.496094-8.621094 26.75-20.332032h10.335937v131.394532c0 25.054687 20.390626 45.4375 45.457032 45.4375h33.773437v20.925781c0 9.089844 7.398438 16.484375 16.496094 16.484375h160.230469c9.09375 0 16.496094-7.394531 16.496094-16.484375v-20.925781h33.746093c25.078125 0 45.484375-20.382813 45.484375-45.4375v-56.378906l32.734375 13.429687c1.238281 13.074219 12.292969 23.339844 25.710938 23.339844 14.230469 0 25.804687-11.566407 25.804687-25.78125v-146.167969c0-14.230469-11.574218-25.808594-25.804687-25.808594zm-179.445313 10.164063h-26.195312v-46.164063h26.195312zm-114.902344 0v-44.058594c0-1.140625.957032-2.105469 2.09375-2.105469h71.792969v46.164063zm181.5-107.125h101.746094c18.359375 0 33.300782 14.914062 33.300782 33.246093 0 18.316407-14.941407 33.21875-33.300782 33.21875h-101.746094c-12.105468 0-22.71875-6.480468-28.546874-16.140624-.167969-.34375-.355469-.671876-.566407-.984376-2.664062-4.769531-4.183593-10.257812-4.183593-16.09375 0-5.867187 1.535156-11.378906 4.21875-16.171874.183593-.269532.339843-.554688.488281-.847657 5.820312-9.710937 16.457031-16.226562 28.589843-16.226562zm-218.929687 53.546875c0-16.105469 11.347656-33.21875 32.371094-33.21875h140.21875c-1.152344 4.113281-1.78125 8.441406-1.78125 12.917968 0 4.464844.628906 8.785157 1.773437 12.890626h-133.058594c-9.328124 0-16.914062 7.59375-16.914062 16.929687v44.058594h-22.609375zm-22.851563 76.164062c0-4.28125 3.492188-7.761718 7.785157-7.761718h229.457031c4.273438 0 7.753906 3.480468 7.753906 7.761718v146.816406c0 4.265626-3.480468 7.734376-7.753906 7.734376h-11.609375c-6.871094 0-12.457031 5.597656-12.457031 12.480468v12.582032h-181.324219v-12.582032c0-6.882812-5.601563-12.480468-12.484375-12.480468h-11.578125c-4.222656 0-7.785156-3.542969-7.785156-7.734376v-22.328124h57.183593c4.09375 0 7.410157-3.316407 7.410157-7.410157s-3.316407-7.410156-7.410157-7.410156h-57.183593v-83.492187h125.59375c.921875 0 1.703125.785156 1.703125 1.71875v80.082031c0 .917969-.78125 1.691406-1.703125 1.691406h-33.136719c-4.09375 0-7.414062 3.316406-7.414062 7.410156s3.320312 7.410157 7.414062 7.410157h33.136719c9.113281 0 16.523437-7.40625 16.523437-16.511719v-80.085938c0-9.117187-7.414062-16.539062-16.523437-16.539062h-125.597657zm-64.820312 38.398438v-25.832032h50v25.832032zm-27.765625 20.332031c-7.136719 0-12.945313-5.796875-12.945313-12.917969v-40.660156c0-7.121094 5.808594-12.917969 12.945313-12.917969s12.945313 5.796875 12.945313 12.917969v40.660156c0 7.121094-5.808594 12.917969-12.945313 12.917969zm373.945313 125.886719c0 16.882812-13.753907 30.613281-30.660157 30.613281h-106.851562c-4.089844 0-7.410157 3.320313-7.410157 7.414063s3.320313 7.410156 7.410157 7.410156h58.28125v20.925781c0 .886719-.78125 1.660156-1.671875 1.660156h-160.230469c-.90625 0-1.675781-.757812-1.675781-1.660156v-20.925781h70.671875c4.09375 0 7.414062-3.316406 7.414062-7.410156s-3.320312-7.414063-7.414062-7.414063h-119.269531c-16.890626 0-30.632813-13.730469-30.632813-30.613281v-131.394532h25.859375v93.59375c0 12.4375 10.140625 22.558594 22.605469 22.558594h9.246093v13.3125c0 6.476563 5.273438 11.75 11.753907 11.75h187.457031c6.480469 0 11.753906-5.273437 11.753906-11.75v-13.3125h9.246094c12.449219 0 22.578125-10.121094 22.578125-22.558594v-124.3125h21.542969v162.113282zm14.824218-164.554688 32.617188-13.398437v118.9375l-32.617188-13.382813zm69.429688 119.164063c0 6.042969-4.929688 10.957031-10.984375 10.957031-6.070313 0-11.007813-4.914062-11.007813-10.957031v-146.167969c0-6.058594 4.9375-10.984375 11.007813-10.984375 6.054687 0 10.984375 4.925781 10.984375 10.984375zm0 0"/><path d="m307.882812 208.175781h12.449219c11.507813 0 20.867188-9.367187 20.867188-20.878906 0-11.5-9.359375-20.851563-20.867188-20.851563h-12.449219c-11.523437 0-20.898437 9.351563-20.898437 20.851563 0 11.511719 9.375 20.878906 20.898437 20.878906zm0-26.910156h12.449219c3.332031 0 6.046875 2.703125 6.046875 6.027344 0 3.339843-2.714844 6.058593-6.046875 6.058593h-12.449219c-3.351562 0-6.074218-2.71875-6.074218-6.058593 0-3.324219 2.722656-6.027344 6.074218-6.027344zm0 0"/><path d="m307.882812 260.203125h12.449219c11.507813 0 20.867188-9.355469 20.867188-20.851563 0-11.515624-9.359375-20.882812-20.867188-20.882812h-12.449219c-11.523437 0-20.898437 9.367188-20.898437 20.882812 0 11.496094 9.375 20.851563 20.898437 20.851563zm0-26.910156h12.449219c3.332031 0 6.046875 2.714843 6.046875 6.054687 0 3.328125-2.714844 6.03125-6.046875 6.03125h-12.449219c-3.351562 0-6.074218-2.703125-6.074218-6.03125 0-3.339844 2.722656-6.054687 6.074218-6.054687zm0 0"/></svg>