<svg width="153" height="26" viewBox="0 0 153 26" fill="none" xmlns="http://www.w3.org/2000/svg">
<path d="M0.612 24.352H0.756V24.136L0.612 24.352ZM0.756 25V24.352H1.188C1.788 24.376 2.316 24.34 2.772 24.244C3.252 24.148 3.528 23.776 3.6 23.128C3.624 22.912 3.648 22.468 3.672 21.796C3.696 21.1 3.708 20.272 3.708 19.312C3.732 18.328 3.744 17.248 3.744 16.072C3.744 14.872 3.744 13.66 3.744 12.436C3.744 11.116 3.732 9.82 3.708 8.548C3.708 7.252 3.696 6.1 3.672 5.092C3.672 4.084 3.648 3.268 3.6 2.644C3.576 1.996 3.54 1.648 3.492 1.6H0.864V0.987998H7.812L13.464 17.224L19.08 0.987998H24.984V1.6H23.04V24.388H24.984V25H16.668V24.352H18.684L18.72 5.128L18.432 5.056C17.328 8.32 16.212 11.584 15.084 14.848C13.98 18.088 12.852 21.34 11.7 24.604L4.644 4.624L4.356 4.696V21.076C4.356 21.772 4.356 22.264 4.356 22.552C4.356 22.84 4.38 23.08 4.428 23.272C4.452 23.56 4.56 23.788 4.752 23.956C4.944 24.1 5.172 24.208 5.436 24.28C5.724 24.352 6.012 24.388 6.3 24.388C6.612 24.388 6.912 24.388 7.2 24.388H7.452V25H0.756ZM32.8272 24.28H36.3192C37.4232 24.28 38.4432 24.256 39.3792 24.208C40.3392 24.136 41.1672 23.908 41.8632 23.524C42.5592 23.116 43.1112 22.48 43.5192 21.616C43.9272 20.752 44.1312 19.516 44.1312 17.908H44.7432V25H26.6712V24.388H28.4712V1.6H26.6712V0.987998H44.7072L44.7432 6.892H44.1312C43.9392 5.572 43.5912 4.564 43.0872 3.868C42.6072 3.148 42.0072 2.632 41.2872 2.32C40.5912 1.984 39.7872 1.804 38.8752 1.78C37.9872 1.732 37.0272 1.708 35.9952 1.708H32.8272V12.328H33.7632C34.5072 12.328 35.1552 12.304 35.7072 12.256C36.2832 12.208 36.7632 12.052 37.1472 11.788C37.5312 11.524 37.8192 11.116 38.0112 10.564C38.2032 9.988 38.3112 9.196 38.3352 8.188H38.9112V17.26H38.3352C38.3112 16.348 38.2152 15.628 38.0472 15.1C37.9032 14.548 37.6872 14.14 37.3992 13.876C37.1112 13.588 36.7632 13.408 36.3552 13.336C35.9472 13.24 35.4792 13.192 34.9512 13.192H32.8272V24.28ZM46.3854 24.352H46.5294V24.136L46.3854 24.352ZM46.5294 25V24.352H46.9614C47.5614 24.376 48.0894 24.34 48.5454 24.244C49.0254 24.148 49.3014 23.776 49.3734 23.128C49.3974 22.912 49.4214 22.468 49.4454 21.796C49.4694 21.1 49.4814 20.272 49.4814 19.312C49.5054 18.328 49.5174 17.248 49.5174 16.072C49.5174 14.872 49.5174 13.66 49.5174 12.436C49.5174 11.116 49.5054 9.82 49.4814 8.548C49.4814 7.252 49.4694 6.1 49.4454 5.092C49.4454 4.084 49.4214 3.268 49.3734 2.644C49.3494 1.996 49.3134 1.648 49.2654 1.6H46.6374V0.987998H53.5854L59.2374 17.224L64.8534 0.987998H70.7574V1.6H68.8134V24.388H70.7574V25H62.4414V24.352H64.4574L64.4934 5.128L64.2054 5.056C63.1014 8.32 61.9854 11.584 60.8574 14.848C59.7534 18.088 58.6254 21.34 57.4734 24.604L50.4174 4.624L50.1294 4.696V21.076C50.1294 21.772 50.1294 22.264 50.1294 22.552C50.1294 22.84 50.1534 23.08 50.2014 23.272C50.2254 23.56 50.3334 23.788 50.5254 23.956C50.7174 24.1 50.9454 24.208 51.2094 24.28C51.4974 24.352 51.7854 24.388 52.0734 24.388C52.3854 24.388 52.6854 24.388 52.9734 24.388H53.2254V25H46.5294ZM93.6487 1.6H93.0727C92.5927 1.6 92.1967 1.612 91.8847 1.636C91.5967 1.66 91.3567 1.768 91.1647 1.96C90.9967 2.128 90.8767 2.416 90.8047 2.824C90.7567 3.232 90.7327 3.808 90.7327 4.552V16.828C90.7327 19.948 90.0967 22.18 88.8247 23.524C87.5767 24.844 85.6927 25.504 83.1727 25.504C82.3807 25.504 81.5047 25.444 80.5447 25.324C79.6087 25.204 78.7087 24.964 77.8447 24.604C77.0047 24.22 76.2607 23.692 75.6127 23.02C74.9887 22.348 74.6047 21.46 74.4607 20.356C74.4127 20.092 74.3887 19.756 74.3887 19.348C74.3887 18.94 74.3887 18.496 74.3887 18.016V1.6H72.1207V0.987998H81.2287V1.6H78.9247V17.116C78.9247 18.22 78.9847 19.24 79.1047 20.176C79.2487 21.088 79.5007 21.88 79.8607 22.552C80.2447 23.224 80.7607 23.752 81.4087 24.136C82.0567 24.52 82.8847 24.712 83.8927 24.712C84.9967 24.712 85.9327 24.52 86.7007 24.136C87.4927 23.728 88.1167 23.164 88.5727 22.444C89.0527 21.7 89.4007 20.812 89.6167 19.78C89.8327 18.724 89.9407 17.56 89.9407 16.288V4.552C89.9407 3.784 89.8927 3.196 89.7967 2.788C89.7247 2.38 89.5927 2.08 89.4007 1.888C89.2087 1.696 88.9567 1.588 88.6447 1.564C88.3327 1.54 87.9487 1.54 87.4927 1.564C87.3727 1.564 87.2407 1.576 87.0967 1.6C86.9767 1.6 86.8327 1.6 86.6647 1.6V0.987998H93.6487V1.6ZM93.7223 24.388C94.2503 24.388 94.6823 24.352 95.0183 24.28C95.3543 24.208 95.6303 24.076 95.8463 23.884C96.0623 23.692 96.2423 23.416 96.3863 23.056C96.5303 22.672 96.6983 22.192 96.8903 21.616C97.9223 18.112 98.9663 14.62 100.022 11.14C101.078 7.636 102.134 4.132 103.19 0.627998H104.414L112.082 24.388H113.666V25H105.062V24.388H107.474L105.17 17.152H98.9063L98.6543 17.872C98.5343 18.232 98.3903 18.688 98.2223 19.24C98.0543 19.792 97.8863 20.344 97.7183 20.896C97.5743 21.448 97.4423 21.952 97.3223 22.408C97.2023 22.864 97.1423 23.176 97.1423 23.344C97.1423 23.632 97.2503 23.848 97.4663 23.992C97.7063 24.136 97.9823 24.244 98.2943 24.316C98.6063 24.364 98.9183 24.388 99.2303 24.388C99.5663 24.388 99.8303 24.388 100.022 24.388H100.094V25H93.7223V24.388ZM99.0863 16.54H104.99L101.966 7.108L99.0863 16.54ZM113.023 24.388C113.551 24.388 113.983 24.352 114.319 24.28C114.655 24.208 114.931 24.076 115.147 23.884C115.363 23.692 115.543 23.416 115.687 23.056C115.831 22.672 115.999 22.192 116.191 21.616C117.223 18.112 118.267 14.62 119.323 11.14C120.379 7.636 121.435 4.132 122.491 0.627998H123.715L131.383 24.388H132.967V25H124.363V24.388H126.775L124.471 17.152H118.207L117.955 17.872C117.835 18.232 117.691 18.688 117.523 19.24C117.355 19.792 117.187 20.344 117.019 20.896C116.875 21.448 116.743 21.952 116.623 22.408C116.503 22.864 116.443 23.176 116.443 23.344C116.443 23.632 116.551 23.848 116.767 23.992C117.007 24.136 117.283 24.244 117.595 24.316C117.907 24.364 118.219 24.388 118.531 24.388C118.867 24.388 119.131 24.388 119.323 24.388H119.395V25H113.023V24.388ZM118.387 16.54H124.291L121.267 7.108L118.387 16.54ZM139.416 24.388H141.612V25H133.476V24.388H135.456V1.6H133.476V0.987998H143.88C144.672 0.987998 145.452 1.084 146.22 1.276C146.988 1.468 147.66 1.792 148.236 2.248C148.836 2.68 149.316 3.268 149.676 4.012C150.06 4.732 150.252 5.644 150.252 6.748C150.252 7.588 150.12 8.32 149.856 8.944C149.616 9.568 149.28 10.108 148.848 10.564C148.416 10.996 147.912 11.356 147.336 11.644C146.76 11.932 146.148 12.148 145.5 12.292V12.688C146.508 12.952 147.288 13.384 147.84 13.984C148.416 14.56 148.848 15.22 149.136 15.964C149.424 16.708 149.604 17.5 149.676 18.34C149.748 19.156 149.796 19.936 149.82 20.68C149.844 21.208 149.868 21.712 149.892 22.192C149.94 22.648 150.012 23.056 150.108 23.416C150.204 23.752 150.348 24.028 150.54 24.244C150.732 24.436 150.996 24.532 151.332 24.532C151.548 24.532 151.752 24.508 151.944 24.46C152.136 24.388 152.328 24.316 152.52 24.244C152.544 24.244 152.568 24.232 152.592 24.208L152.808 24.748C152.4 24.94 151.992 25.072 151.584 25.144C151.2 25.216 150.804 25.252 150.396 25.252C149.34 25.252 148.512 25.096 147.912 24.784C147.312 24.472 146.844 24.04 146.508 23.488C146.196 22.936 145.98 22.276 145.86 21.508C145.764 20.74 145.68 19.888 145.608 18.952C145.584 18.664 145.56 18.364 145.536 18.052C145.512 17.74 145.476 17.416 145.428 17.08C145.308 16.048 145.056 15.244 144.672 14.668C144.312 14.092 143.856 13.672 143.304 13.408C142.776 13.12 142.176 12.952 141.504 12.904C140.832 12.832 140.136 12.796 139.416 12.796V24.388ZM139.416 1.6V12.22H140.568C141.24 12.22 141.9 12.124 142.548 11.932C143.22 11.74 143.808 11.44 144.312 11.032C144.816 10.6 145.224 10.06 145.536 9.412C145.848 8.74 146.004 7.924 146.004 6.964C146.004 5.884 145.86 4.996 145.572 4.3C145.284 3.604 144.888 3.064 144.384 2.68C143.88 2.272 143.292 1.996 142.62 1.852C141.948 1.684 141.228 1.6 140.46 1.6H139.416Z" fill="white"/>
</svg>
